<svg width="800" height="400" viewBox="0 0 800 400" xmlns="http://www.w3.org/2000/svg">
  <defs>
    <style>
      .continent { fill: #e2e8f0; opacity: 0.6; }
    </style>
  </defs>
  
  <!-- Simple continent shapes -->
  <path class="continent" d="M50 150 L200 120 L300 180 L280 280 L150 300 L80 250 Z"/>
  <path class="continent" d="M180 320 L250 300 L280 400 L260 500 L200 480 L160 420 Z"/>
  <path class="continent" d="M480 120 L580 100 L620 180 L580 220 L520 200 L480 160 Z"/>
  <path class="continent" d="M520 220 L580 200 L620 300 L600 420 L540 440 L500 360 L480 280 Z"/>
  <path class="continent" d="M620 80 L900 60 L1000 120 L980 200 L920 180 L880 140 L820 160 L780 120 L720 100 Z"/>
</svg>