<svg width="1200" height="600" viewBox="0 0 1200 600" xmlns="http://www.w3.org/2000/svg">
  <defs>
    <style>
      .continent { fill: #e2e8f0; opacity: 0.6; }
    </style>
  </defs>
  
  <!-- Simple continent shapes for placeholder -->
  <!-- North America -->
  <path class="continent" d="M50 150 L200 120 L300 180 L280 280 L150 300 L80 250 Z"/>
  
  <!-- South America -->
  <path class="continent" d="M180 320 L250 300 L280 400 L260 500 L200 480 L160 420 Z"/>
  
  <!-- Europe -->
  <path class="continent" d="M480 120 L580 100 L620 180 L580 220 L520 200 L480 160 Z"/>
  
  <!-- Africa -->
  <path class="continent" d="M520 220 L580 200 L620 300 L600 420 L540 440 L500 360 L480 280 Z"/>
  
  <!-- Asia -->
  <path class="continent" d="M620 80 L900 60 L1000 120 L980 200 L920 180 L880 140 L820 160 L780 120 L720 100 Z"/>
  
  <!-- Australia -->
  <path class="continent" d="M880 380 L980 360 L1000 400 L980 420 L900 430 L880 410 Z"/>
  
  <!-- Additional landmasses for visual interest -->
  <circle class="continent" cx="300" cy="80" r="15"/>
  <circle class="continent" cx="450" cy="90" r="8"/>
  <circle class="continent" cx="720" cy="200" r="12"/>
  <circle class="continent" cx="850" cy="300" r="10"/>
</svg>